<svg version="1.1" id="Layer_1" xmlns="http://www.w3.org/2000/svg" xmlns:xlink="http://www.w3.org/1999/xlink" x="0px" y="0px"
	 width="100%" viewBox="0 0 1024 1024" enable-background="new 0 0 1024 1024" xml:space="preserve">
<path fill="#000000" opacity="1.000000" stroke="none" 
	d="
M494.679047,420.320618 
	C470.116913,395.154724 444.884003,371.142090 421.351929,345.458862 
	C417.701874,341.475098 416.402161,337.066406 418.439667,332.200745 
	C420.475037,327.340240 424.799408,325.825378 429.886688,325.835907 
	C452.047211,325.881805 474.207977,325.819000 496.368591,325.843445 
	C504.383331,325.852264 511.137268,328.638641 516.945862,334.401001 
	C559.280334,376.398621 601.689026,418.321747 644.163635,460.177734 
	C659.110474,474.906860 674.347168,489.341339 689.371521,503.992493 
	C695.824646,510.285370 695.833496,516.461792 689.383972,522.923035 
	C648.544800,563.836426 607.654297,604.698547 566.790222,645.587097 
	C552.892944,659.492676 538.984497,673.387573 525.171448,687.376465 
	C522.223938,690.361450 519.000671,692.970093 515.652222,695.429199 
	C511.943451,698.152954 507.798431,699.452087 503.061279,699.429077 
	C478.568451,699.309937 454.074432,699.310486 429.581543,699.423706 
	C424.598419,699.446716 420.591034,697.992798 418.541046,693.359497 
	C416.489960,688.723816 417.199677,684.094971 420.742828,680.395752 
	C428.000122,672.818787 435.414154,665.389709 442.846832,657.983154 
	C485.211334,615.767761 527.639954,573.616394 569.922180,531.318665 
	C574.366882,526.872375 578.583557,522.105103 582.000366,516.718933 
	C583.628235,514.152771 583.754700,512.004456 581.870361,509.457703 
	C578.897339,505.439545 575.960693,501.397980 572.422668,497.864197 
	C546.609314,472.081818 520.763733,446.331787 494.679047,420.320618 
z"/>
</svg>